<?xml version="1.0" standalone="no"?>
<!DOCTYPE svg PUBLIC "-//W3C//DTD SVG 20010904//EN"
 "http://www.w3.org/TR/2001/REC-SVG-20010904/DTD/svg10.dtd">
<svg version="1.0" xmlns="http://www.w3.org/2000/svg"
 width="1048.000000pt" height="330.000000pt" viewBox="0 0 1048.000000 330.000000"
 preserveAspectRatio="xMidYMid meet">

<g transform="translate(0.000000,330.000000) scale(0.100000,-0.100000)"
fill="#000000" stroke="none">
<path d="M387 3105 c-88 -33 -173 -123 -196 -207 -9 -32 -11 -355 -9 -1258 l3
-1215 23 -47 c30 -60 90 -120 150 -150 l47 -23 1235 0 1235 0 47 23 c60 30
120 90 150 150 l23 47 0 1235 0 1235 -23 47 c-30 60 -90 120 -150 150 l-47 23
-1225 2 c-1034 1 -1231 0 -1263 -12z m1592 -596 l334 -341 -134 -134 c-74 -74
-145 -137 -158 -141 -20 -5 -48 19 -202 173 l-179 179 -115 -115 -115 -115
111 -111 c136 -136 137 -140 53 -225 -85 -86 -91 -85 -230 52 l-112 111 -40
-54 c-79 -105 -112 -204 -112 -338 0 -179 88 -351 235 -455 328 -234 790 -51
870 344 19 93 16 182 -10 267 -27 89 -28 86 134 248 l149 149 25 -39 c55 -88
100 -203 128 -329 21 -95 16 -302 -9 -408 -115 -470 -543 -793 -1011 -764
-625 39 -1059 624 -911 1227 25 101 93 248 157 339 40 57 787 821 802 821 4 0
156 -153 340 -341z"/>
<path d="M6650 2651 c-72 -22 -138 -79 -164 -143 -19 -45 -20 -139 -2 -189 58
-162 268 -211 391 -92 51 50 75 105 75 178 0 166 -152 291 -300 246z"/>
<path d="M3680 1645 l0 -955 700 0 700 0 0 200 0 200 -77 0 c-43 1 -250 1
-460 1 l-383 0 0 190 0 189 410 0 410 0 0 195 0 195 -410 0 -410 0 0 165 0
165 450 0 450 0 0 205 0 205 -690 0 -690 0 0 -955z"/>
<path d="M9314 2030 c-100 -11 -176 -35 -271 -85 -101 -53 -170 -110 -230
-190 -255 -336 -127 -841 260 -1023 162 -76 397 -91 572 -35 137 43 275 140
357 250 148 201 170 484 54 709 -135 264 -421 408 -742 374z m173 -425 c56
-17 120 -72 149 -127 10 -19 19 -64 22 -108 10 -173 -88 -289 -244 -290 -85 0
-145 23 -193 75 -76 83 -91 218 -37 330 54 110 176 158 303 120z"/>
<path d="M5975 2014 c-32 -8 -88 -30 -122 -49 -35 -19 -66 -35 -68 -35 -3 0
-5 16 -5 35 l0 35 -230 0 -230 0 0 -655 0 -655 230 0 229 0 3 397 3 398 25 45
c14 24 41 55 60 68 31 21 43 23 110 20 50 -3 87 -11 108 -23 20 -12 35 -16 41
-10 5 6 65 86 134 179 l125 169 -28 24 c-16 13 -50 33 -77 45 -62 28 -219 35
-308 12z"/>
<path d="M7920 2023 c-63 -11 -132 -36 -184 -68 l-56 -34 0 40 0 39 -235 0
-235 0 0 -655 0 -655 235 0 235 0 0 400 c0 439 1 443 59 493 91 76 231 57 289
-41 l27 -47 3 -402 3 -403 229 0 230 0 0 458 c0 379 -3 468 -15 517 -45 170
-180 305 -350 350 -55 14 -177 18 -235 8z"/>
<path d="M6480 1345 l0 -655 230 0 230 0 0 655 0 655 -230 0 -230 0 0 -655z"/>
</g>
</svg>
