<?xml version="1.0" standalone="no"?>
<!DOCTYPE svg PUBLIC "-//W3C//DTD SVG 20010904//EN"
 "http://www.w3.org/TR/2001/REC-SVG-20010904/DTD/svg10.dtd">
<svg version="1.0" xmlns="http://www.w3.org/2000/svg"
 width="324.000000pt" height="332.000000pt" viewBox="0 0 324.000000 332.000000"
 preserveAspectRatio="xMidYMid meet">

<g transform="translate(0.000000,332.000000) scale(0.100000,-0.100000)"
fill="#000000" stroke="none">
<path d="M347 3065 c-88 -33 -173 -123 -196 -207 -9 -32 -11 -355 -9 -1258 l3
-1215 23 -47 c30 -60 90 -120 150 -150 l47 -23 1235 0 1235 0 47 23 c60 30
120 90 150 150 l23 47 0 1235 0 1235 -23 47 c-30 60 -90 120 -150 150 l-47 23
-1225 2 c-1034 1 -1231 0 -1263 -12z m1592 -596 l334 -341 -134 -134 c-74 -74
-145 -137 -158 -141 -20 -5 -48 19 -202 173 l-179 179 -115 -115 -115 -115
111 -111 c136 -136 137 -140 53 -225 -85 -86 -91 -85 -230 52 l-112 111 -40
-54 c-79 -105 -112 -204 -112 -338 0 -179 88 -351 235 -455 328 -234 790 -51
870 344 19 93 16 182 -10 267 -27 89 -28 86 134 248 l149 149 25 -39 c55 -88
100 -203 128 -329 21 -95 16 -302 -9 -408 -115 -470 -543 -793 -1011 -764
-625 39 -1059 624 -911 1227 25 101 93 248 157 339 40 57 787 821 802 821 4 0
156 -153 340 -341z"/>
</g>
</svg>
